<?xml version="1.0" encoding="UTF-8" standalone="no"?>
<svg
   xmlns:osb="http://www.openswatchbook.org/uri/2009/osb"
   xmlns:dc="http://purl.org/dc/elements/1.1/"
   xmlns:cc="http://creativecommons.org/ns#"
   xmlns:rdf="http://www.w3.org/1999/02/22-rdf-syntax-ns#"
   xmlns:svg="http://www.w3.org/2000/svg"
   xmlns="http://www.w3.org/2000/svg"
   xmlns:xlink="http://www.w3.org/1999/xlink"
   width="512"
   height="512"
   viewBox="0 0 512 512"
   id="svg2"
   version="1.1">
  <defs
     id="defs4">
    <linearGradient
       id="linearGradient5811">
      <stop
         style="stop-color:#c17d16;stop-opacity:1;"
         offset="0"
         id="stop5813" />
      <stop
         style="stop-color:#58390a;stop-opacity:1"
         offset="1"
         id="stop5815" />
    </linearGradient>
    <linearGradient
       id="linearGradient5801">
      <stop
         style="stop-color:#63962b;stop-opacity:0.94117647"
         offset="0"
         id="stop5803" />
      <stop
         style="stop-color:#226121;stop-opacity:0.94117647"
         offset="1"
         id="stop5805" />
    </linearGradient>
    <linearGradient
       id="linearGradient5759">
      <stop
         style="stop-color:#278f3f;stop-opacity:0.94117647"
         offset="0"
         id="stop5761" />
      <stop
         style="stop-color:#cfdb4b;stop-opacity:1"
         offset="1"
         id="stop5763" />
    </linearGradient>
    <linearGradient
       id="linearGradient5749">
      <stop
         style="stop-color:#ffffff;stop-opacity:1;"
         offset="0"
         id="stop5751" />
      <stop
         style="stop-color:#ffffff;stop-opacity:0;"
         offset="1"
         id="stop5753" />
    </linearGradient>
    <linearGradient
       id="linearGradient4140"
       osb:paint="gradient">
      <stop
         style="stop-color:#ffb471;stop-opacity:1;"
         offset="0"
         id="stop4142" />
      <stop
         style="stop-color:#ffb471;stop-opacity:0;"
         offset="1"
         id="stop4144" />
    </linearGradient>
    <linearGradient
       xlink:href="#linearGradient5749"
       id="linearGradient5755"
       x1="104.61456"
       y1="620.36218"
       x2="160"
       y2="716.36218"
       gradientUnits="userSpaceOnUse" />
    <linearGradient
       xlink:href="#linearGradient5759"
       id="linearGradient5765"
       x1="256"
       y1="1097.0343"
       x2="128"
       y2="829.00134"
       gradientUnits="userSpaceOnUse"
       gradientTransform="matrix(1,0,0,0.71632978,0,298.52382)" />
    <linearGradient
       xlink:href="#linearGradient5801"
       id="linearGradient5809"
       x1="272"
       y1="652.36218"
       x2="384"
       y2="742.36218"
       gradientUnits="userSpaceOnUse"
       gradientTransform="translate(12,38)" />
    <linearGradient
       xlink:href="#linearGradient5811"
       id="linearGradient5817"
       x1="304"
       y1="884.36218"
       x2="448"
       y2="772.36218"
       gradientUnits="userSpaceOnUse"
       gradientTransform="matrix(0.76086793,0,0,1,99.212389,56)" />
  </defs>
  <metadata
     id="metadata7">
    <rdf:RDF>
      <cc:Work
         rdf:about="">
        <dc:format>image/svg+xml</dc:format>
        <dc:type
           rdf:resource="http://purl.org/dc/dcmitype/StillImage" />
        <dc:title></dc:title>
      </cc:Work>
    </rdf:RDF>
  </metadata>
  <g
     id="layer1"
     transform="translate(0,-540.36216)">
    <rect
       style="fill:#97ccef;fill-opacity:1;stroke:none;stroke-opacity:1"
       id="rect5707"
       width="512"
       height="511.99994"
       x="0"
       y="540.36218" />
    <path
       style="fill:url(#linearGradient5755);fill-opacity:1;fill-rule:evenodd;stroke:none;stroke-width:1px;stroke-linecap:butt;stroke-linejoin:miter;stroke-opacity:1;opacity:1"
       d="m 58,684.36216 c 48,0 96,0 143.85714,-0.57143 C 250,684.36216 234,620.36216 205.42857,622.50502 224,588.36216 170,540.36216 138,588.36216 c 0,-32 -48,-32 -48,0 -32,-16 -58,32 -31.142857,48.71429 C 26,636.36216 26,684.36216 58,684.36216 Z"
       id="path5705" />
    <path
       style="fill:url(#linearGradient5765);fill-opacity:1;fill-rule:evenodd;stroke:none;stroke-width:1px;stroke-linecap:butt;stroke-linejoin:miter;stroke-opacity:1"
       d="M 0,903.36558 C 176,868.98175 352,846.0592 512,868.98175 l 0,183.38045 -512,0 z"
       id="path5757" />
    <path
       style="fill:url(#linearGradient5809);fill-opacity:1;fill-rule:evenodd;stroke:none;stroke-width:1px;stroke-linecap:butt;stroke-linejoin:miter;stroke-opacity:1"
       d="m 332,818.36216 c 49.74318,26.73929 100.92427,17.37328 136.02252,-10.9009 15.14778,-9.27833 22.14096,-28.63542 21.84685,-53.07658 0,-24 -2.90091,-53.86937 -34.90091,-61.86937 -16,-24 -21.16666,-29.84684 -53.16666,-21.84684 -32,-8 -48,-9.42793 -64,14.57207 -32,8 -42.92342,15.97748 -42.92342,39.97748 -16,24 -26.87838,37.14414 -10.87838,61.14414 16,24 16,24 48,32 z"
       id="path5769" />
    <path
       style="fill:url(#linearGradient5817);fill-opacity:1;fill-rule:evenodd;stroke:none;stroke-width:1px;stroke-linecap:butt;stroke-linejoin:miter;stroke-opacity:1"
       d="m 365.51616,949.36216 38.0434,-1 c -7.61884,-66.61277 3.93211,-100.57641 25.54762,-143.57641 4.82063,-5.53966 5.01425,-21.77262 -1.9974,-11.82144 -26.56266,37.69865 -23.55022,51.39785 -39.65086,-1.7603 -10.03761,-25.11534 -9.80477,-11.08756 -9.59217,-7.96837 3.07152,45.06578 -10.82885,29.12652 -25.01426,14.22898 -4.36873,-4.58805 -11.74285,-2.76952 -5.6559,5.23048 l 15.02252,20.02596 c 13.69562,31 15.47094,94.6411 3.29705,126.6411 z"
       id="path5767" />
  </g>
  <path
     style="fill:#ffffff;fill-opacity:1;fill-rule:evenodd;stroke:#000000;stroke-width:25;stroke-linecap:butt;stroke-linejoin:miter;stroke-miterlimit:4;stroke-dasharray:none;stroke-opacity:1"
     d="m 182,208 0,256 144,-128 z"
     id="path5821-3" />
  <path
     style="fill:#ffffff;fill-opacity:1;fill-rule:evenodd;stroke:#000000;stroke-width:25;stroke-linecap:butt;stroke-linejoin:miter;stroke-miterlimit:4;stroke-dasharray:none;stroke-opacity:1"
     d="m 32,208.40678 0,256 144,-128 z"
     id="path5821-3-6" />
</svg>
